# xmcd
#
# Track frame offsets:
#	150
#	18598
#	40943
#
# Disc length: 805 seconds
#
# Revision: 0
# Processed by: cddbd v1.5.2PL0 Copyright (c) Steve Scherf et al.
# Submitted via: audiograbber 1.83.01
#
DISCID=1d032303
DTITLE=Hanne Boel - All It Takes [CDS)
DYEAR=1994
DGENRE=Country
TTITLE0=All It Takes (Radio Edit)
TTITLE1=All It Takes (Album Version)
TTITLE2=You Loved Away The Pain
EXTD=
EXTT0=
EXTT1=
EXTT2=
PLAYORDER=
